<?xml version="1.0" standalone="no"?>
<!DOCTYPE svg PUBLIC "-//W3C//DTD SVG 20010904//EN"
 "http://www.w3.org/TR/2001/REC-SVG-20010904/DTD/svg10.dtd">
<svg version="1.0" xmlns="http://www.w3.org/2000/svg"
 width="1280.000000pt" height="1052.000000pt" viewBox="0 0 1280.000000 1052.000000"
 preserveAspectRatio="xMidYMid meet">
<metadata>
Created by potrace 1.15, written by Peter Selinger 2001-2017
</metadata>
<g transform="translate(0.000000,1052.000000) scale(0.100000,-0.100000)"
fill="#000000" stroke="none">
<path d="M2196 10453 c-128 -67 -129 -68 -154 -121 -13 -30 -31 -97 -39 -151
-25 -161 -11 -370 61 -926 33 -247 50 -491 42 -585 -11 -130 -9 -128 -169
-355 -115 -163 -407 -605 -499 -755 -461 -747 -742 -1391 -812 -1861 -20 -137
-21 -352 -2 -407 28 -78 90 -137 174 -166 l35 -12 -94 -58 c-160 -100 -319
-225 -449 -356 -129 -129 -293 -333 -288 -360 7 -35 40 -9 113 90 90 121 304
339 420 427 152 115 475 311 475 288 0 -3 -11 -21 -24 -38 -13 -18 -60 -110
-106 -204 -70 -146 -82 -179 -78 -213 l4 -41 -106 -78 c-203 -151 -355 -300
-497 -487 -84 -111 -145 -211 -141 -230 7 -39 30 -19 100 88 142 216 327 411
545 575 63 47 115 84 116 82 5 -8 87 -216 87 -221 0 -3 -48 -41 -107 -85 -277
-206 -498 -446 -659 -716 -41 -70 -45 -81 -31 -94 18 -19 19 -17 93 102 157
254 364 475 638 679 l90 67 29 -48 c41 -67 74 -100 135 -135 44 -25 59 -29 93
-23 22 4 53 18 68 31 16 13 37 24 46 24 9 0 29 8 43 19 48 34 103 51 163 51
64 0 84 14 45 32 -51 23 -23 59 43 57 31 -2 37 -3 18 -6 -20 -3 -27 -9 -25
-21 4 -19 38 -19 75 0 13 6 25 9 28 6 9 -9 -21 -81 -84 -204 -72 -140 -79
-192 -35 -260 26 -41 89 -84 121 -84 14 0 22 -12 31 -45 16 -60 70 -117 144
-155 70 -34 97 -36 243 -15 74 11 201 15 485 14 446 0 432 13 131 -116 -215
-92 -317 -154 -435 -264 -224 -209 -354 -493 -397 -868 -15 -135 -6 -508 16
-656 73 -489 292 -908 626 -1203 193 -171 352 -229 1020 -373 435 -93 441 -92
879 177 130 79 144 85 350 149 337 103 340 104 435 153 210 109 299 261 353
607 36 223 45 387 46 755 0 356 -9 512 -40 682 -14 79 -26 105 -116 265 -55
98 -139 237 -186 308 -48 72 -90 135 -95 142 -7 12 7 17 96 37 21 5 27 12 27
33 0 31 -80 112 -140 143 -208 106 -820 213 -1420 248 -84 5 -367 5 -675 -1
-615 -12 -770 -5 -930 42 -136 39 -183 68 -215 130 -58 116 -19 310 88 434 23
26 45 60 48 75 11 44 76 168 157 301 l20 34 -32 -5 c-30 -4 -32 -3 -26 19 7
30 -4 30 -139 -2 -85 -20 -126 -37 -204 -82 -145 -84 -397 -207 -484 -237 -74
-25 -198 -46 -198 -32 0 3 62 37 139 75 680 341 1535 533 2626 591 447 23
1306 4 1592 -36 34 -5 44 -3 49 11 4 9 3 20 -2 25 -25 25 -675 60 -1097 60
-1103 0 -2082 -154 -2832 -447 -77 -30 -228 -98 -335 -151 -107 -53 -198 -98
-201 -100 -16 -8 -39 75 -39 143 0 113 2 115 142 183 577 282 1266 444 2183
512 239 18 848 24 1135 11 300 -14 674 -43 883 -70 121 -16 144 -17 157 -5 24
23 0 33 -118 49 -409 54 -864 80 -1397 79 -739 -1 -1289 -56 -1860 -186 -342
-77 -734 -212 -986 -338 -55 -28 -103 -50 -104 -48 -2 2 9 28 23 58 17 36 57
86 114 143 48 48 88 96 88 106 0 19 29 107 50 152 10 22 31 32 125 63 869 281
2073 336 3415 156 164 -22 458 -71 574 -95 72 -15 86 -13 86 11 0 21 -26 28
-250 68 -980 170 -2039 214 -2840 116 -327 -40 -685 -112 -920 -186 -63 -20
-123 -38 -132 -41 -14 -4 -13 5 10 59 30 74 40 170 22 224 -12 37 -13 37 -25
14 -13 -23 -13 -23 -20 11 -4 19 -9 38 -12 42 -3 4 -32 -21 -64 -57 -65 -71
-211 -182 -393 -300 -64 -42 -118 -76 -120 -76 -2 0 -10 17 -19 38 -53 134
-24 280 134 684 140 360 203 503 334 763 350 695 777 1269 1401 1887 611 603
1198 996 1765 1182 436 143 1009 191 1639 137 340 -30 848 -77 1143 -106 l247
-25 112 -56 c577 -289 1394 -743 1571 -872 36 -26 165 -154 289 -287 124 -132
325 -343 448 -470 337 -348 535 -583 722 -860 323 -476 469 -865 485 -1291 6
-168 2 -204 -26 -204 -21 0 -103 54 -226 150 -102 80 -135 90 -200 65 -25 -9
-47 -20 -49 -23 -2 -4 23 -40 56 -81 41 -51 84 -124 135 -229 41 -84 73 -155
71 -157 -2 -2 -53 5 -113 15 -157 26 -324 47 -541 66 -235 21 -909 24 -1184 6
-483 -33 -970 -95 -1408 -178 -379 -71 -433 -87 -405 -115 9 -9 62 -2 240 34
1230 249 2397 294 3345 130 l97 -16 42 -95 c48 -111 101 -253 96 -258 -2 -2
-28 3 -57 12 -97 29 -342 83 -510 114 -339 61 -670 94 -1123 112 -572 22
-1348 -23 -1950 -113 -152 -23 -192 -37 -170 -60 9 -9 61 -5 235 20 266 38
519 64 838 87 334 25 1110 25 1410 1 437 -36 779 -89 1142 -179 l208 -51 10
-36 c21 -73 34 -181 23 -192 -12 -12 -70 11 -328 124 -289 127 -375 151 -416
119 -20 -17 -21 -22 -11 -50 6 -18 8 -32 4 -32 -4 0 -68 11 -143 24 -421 76
-1041 126 -1554 126 -374 0 -863 -27 -1230 -66 -161 -18 -199 -27 -192 -47 5
-16 80 -14 273 7 372 39 610 50 1129 50 581 1 831 -14 1293 -75 145 -19 419
-64 452 -74 9 -3 24 -19 34 -36 10 -17 49 -70 87 -117 38 -47 69 -89 69 -94 0
-4 -9 -8 -19 -8 -35 0 -31 -17 7 -28 61 -18 126 -66 181 -132 67 -81 88 -123
102 -210 11 -64 10 -76 -5 -104 -30 -56 -57 -64 -308 -96 -254 -31 -421 -46
-683 -59 -159 -8 -192 -13 -490 -80 -176 -40 -444 -101 -595 -137 -305 -72
-284 -70 -900 -108 l-384 -24 -186 -92 c-102 -50 -237 -122 -300 -160 l-115
-67 -265 -67 c-320 -81 -330 -84 -330 -102 0 -26 45 -24 225 10 98 19 183 32
188 29 4 -2 5 -14 2 -26 -4 -15 0 -13 12 8 16 28 18 28 21 8 4 -24 -36 -108
-109 -229 -81 -136 -108 -202 -135 -340 -65 -330 -88 -626 -81 -1019 6 -312
19 -436 64 -603 14 -54 27 -107 27 -119 1 -11 4 -19 7 -17 9 5 20 -26 13 -37
-3 -5 0 -9 6 -9 6 0 8 -4 5 -10 -3 -5 -1 -10 5 -10 6 0 8 -4 5 -10 -3 -5 -1
-10 5 -10 6 0 8 -4 5 -10 -3 -5 -1 -10 5 -10 6 0 9 -4 6 -9 -3 -5 1 -12 10
-15 9 -4 14 -9 11 -12 -3 -3 1 -13 9 -22 8 -9 28 -34 45 -54 17 -21 58 -57 92
-81 122 -87 220 -127 517 -213 241 -70 251 -74 447 -211 117 -80 234 -137 344
-165 82 -21 91 -21 210 -9 558 59 991 225 1265 483 163 155 275 360 399 733
98 291 146 523 165 797 26 350 -43 640 -213 898 -37 56 -209 224 -302 295
-150 114 -368 235 -562 310 -40 16 -73 32 -73 36 0 4 20 19 45 33 48 28 354
98 1040 235 372 75 1055 201 1086 201 33 0 42 36 36 139 -5 75 -52 355 -60
356 -1 0 -29 13 -61 28 -78 37 -161 102 -225 175 -66 77 -66 92 0 21 28 -30
37 -37 20 -16 -17 21 -31 42 -31 48 0 6 66 -24 146 -66 264 -138 357 -160 418
-100 16 16 20 16 64 0 26 -10 123 -56 217 -103 449 -228 790 -524 1029 -895
54 -84 78 -103 89 -73 7 17 -104 189 -193 301 -249 311 -597 572 -1040 778
l-125 58 -1 128 c-1 152 -21 145 176 59 500 -219 862 -505 1134 -896 56 -80
78 -97 89 -68 12 30 -148 241 -303 400 -266 273 -587 482 -1001 651 l-117 47
-6 41 c-4 23 -18 80 -32 126 -28 93 -26 101 33 101 47 0 47 13 0 49 l-42 33
35 -7 c19 -4 76 -20 125 -37 307 -103 598 -253 833 -427 109 -81 350 -321 427
-424 54 -73 82 -91 92 -61 13 38 -304 382 -462 501 -254 192 -499 321 -840
444 -88 32 -159 62 -158 66 2 4 12 33 23 65 12 34 24 111 32 198 22 256 -12
448 -139 793 -72 197 -125 317 -136 310 -6 -4 -7 -1 -3 6 11 16 -83 233 -97
224 -6 -4 -7 -1 -2 6 9 15 -24 93 -36 85 -5 -3 -6 2 -3 9 12 32 -155 342 -173
323 -3 -3 6 -19 21 -37 15 -17 34 -45 42 -63 l15 -31 -23 30 c-40 52 -107 125
-274 300 -89 94 -179 191 -201 217 -41 50 -98 140 -109 173 -3 11 10 -6 29
-38 20 -32 48 -73 63 -90 35 -43 254 -267 254 -260 0 3 -51 57 -113 121 -115
119 -182 206 -232 299 l-28 53 6 157 c3 87 22 294 42 461 81 685 97 911 76
1090 -15 124 -36 212 -58 232 -14 14 -14 13 -4 -7 19 -37 13 -36 -34 5 -95 83
-189 104 -475 105 -200 0 -346 -15 -627 -64 -65 -11 -143 -24 -173 -29 -59 -8
-356 -80 -674 -161 -105 -27 -198 -49 -208 -49 -10 0 -50 11 -90 24 -40 13
-104 34 -143 45 -117 37 -235 81 -345 131 -114 51 -203 72 -475 115 -230 35
-458 61 -715 82 -299 24 -1046 25 -1215 1 -60 -8 -112 -13 -115 -11 -3 3 4 11
14 19 19 13 19 14 -6 14 -14 0 -43 -6 -64 -14 -22 -7 -64 -16 -94 -20 -30 -4
-107 -18 -170 -31 -233 -48 -283 -50 -525 -16 -105 15 -544 106 -815 170 -165
39 -413 86 -580 111 -111 16 -381 40 -440 40 -8 0 -73 -31 -144 -67z m7787
-770 c-13 -2 -35 -2 -50 0 -16 2 -5 4 22 4 28 0 40 -2 28 -4z m94 -9 c-3 -3
-12 -4 -19 -1 -8 3 -5 6 6 6 11 1 17 -2 13 -5z m84 -41 c13 -16 12 -17 -3 -4
-10 7 -18 15 -18 17 0 8 8 3 21 -13z m-981 -327 c0 -2 -8 -10 -17 -17 -16 -13
-17 -12 -4 4 13 16 21 21 21 13z m170 -321 c13 -14 21 -25 18 -25 -2 0 -15 11
-28 25 -13 14 -21 25 -18 25 2 0 15 -11 28 -25z m161 -172 c13 -16 12 -17 -3
-4 -10 7 -18 15 -18 17 0 8 8 3 21 -13z m225 -245 l29 -33 -32 29 c-31 28 -38
36 -30 36 2 0 16 -15 33 -32z m74 -73 c19 -19 32 -35 29 -35 -3 0 -20 16 -39
35 -19 19 -32 35 -29 35 3 0 20 -16 39 -35z m1130 -1300 c0 -5 -5 -3 -10 5 -5
8 -10 20 -10 25 0 6 5 3 10 -5 5 -8 10 -19 10 -25z m271 -1732 c13 -15 12 -15
-8 -4 -24 12 -29 21 -14 21 5 0 15 -7 22 -17z"/>
<path d="M5513 10313 c48 -2 125 -2 170 0 45 1 6 3 -88 3 -93 0 -130 -2 -82
-3z"/>
<path d="M5813 10313 c15 -2 37 -2 50 0 12 2 0 4 -28 4 -27 0 -38 -2 -22 -4z"/>
<path d="M5277 10303 c18 -2 50 -2 70 0 21 2 7 4 -32 4 -38 0 -55 -2 -38 -4z"/>
<path d="M5398 10303 c7 -3 16 -2 19 1 4 3 -2 6 -13 5 -11 0 -14 -3 -6 -6z"/>
<path d="M5973 10303 c9 -2 23 -2 30 0 6 3 -1 5 -18 5 -16 0 -22 -2 -12 -5z"/>
<path d="M6048 10303 c12 -2 30 -2 40 0 9 3 -1 5 -23 4 -22 0 -30 -2 -17 -4z"/>
<path d="M5126 10292 c-2 -4 12 -6 32 -4 56 5 62 10 15 11 -23 1 -44 -3 -47
-7z"/>
<path d="M5068 10283 c6 -2 18 -2 25 0 6 3 1 5 -13 5 -14 0 -19 -2 -12 -5z"/>
<path d="M3952 8556 c-534 -291 -883 -770 -1072 -1471 -15 -53 -30 -169 -45
-340 l-22 -260 23 -41 c13 -23 57 -72 97 -110 120 -112 293 -200 540 -274 291
-88 534 -129 817 -137 593 -16 1122 145 1527 465 62 50 107 134 124 235 15 90
6 386 -15 500 -59 319 -222 614 -476 867 -361 358 -829 573 -1320 605 l-95 6
-83 -45z m267 -304 c19 -9 37 -25 39 -34 2 -10 -34 -80 -79 -155 -46 -76 -94
-164 -107 -196 -71 -177 -81 -530 -21 -766 56 -218 175 -342 357 -372 217 -36
359 107 438 438 35 148 56 333 39 351 -7 8 -52 17 -111 22 -158 14 -244 50
-283 121 -61 107 7 231 179 329 69 39 70 41 55 113 l-7 37 44 0 c93 0 189 -73
246 -187 54 -107 77 -215 92 -431 39 -586 -165 -1100 -491 -1240 -58 -24 -76
-27 -184 -27 -116 0 -123 1 -188 33 -204 101 -351 386 -403 782 -20 153 -15
504 10 645 39 229 108 387 218 499 74 75 77 75 157 38z m-603 -299 c-31 -212
-40 -676 -17 -858 62 -487 224 -785 520 -961 90 -53 84 -58 -69 -59 -113 0
-213 21 -396 86 -182 63 -450 205 -623 328 l-63 46 6 75 c33 365 311 1003 572
1313 31 37 61 67 66 67 6 0 7 -17 4 -37z m1800 -255 c124 -130 212 -290 297
-534 57 -165 78 -266 78 -374 0 -202 -98 -350 -301 -454 -64 -33 -718 -266
-747 -266 -2 0 45 53 106 118 133 142 195 218 273 337 173 261 208 423 208
958 0 158 4 287 9 287 5 0 39 -33 77 -72z m-946 -1657 c0 -5 -7 -14 -16 -22
-13 -10 -24 -10 -62 0 -76 20 -74 31 6 31 40 0 72 -4 72 -9z"/>
<path d="M8104 8552 c-577 -255 -1000 -582 -1237 -955 -214 -335 -304 -816
-199 -1058 17 -38 138 -134 334 -267 218 -148 631 -279 1013 -324 138 -15 469
-15 595 1 163 20 336 59 491 111 348 114 555 252 641 428 32 65 33 70 32 192
-2 187 -47 376 -161 664 -114 289 -239 540 -371 740 -215 327 -511 493 -917
512 l-110 5 -111 -49z m417 -323 c121 -78 202 -250 240 -509 18 -123 15 -471
-5 -600 -34 -215 -102 -423 -185 -565 -112 -191 -311 -297 -502 -268 -185 29
-334 161 -443 394 -99 211 -135 370 -143 630 -11 370 50 600 201 753 62 62
179 131 213 124 30 -6 24 -24 -12 -37 -95 -34 -146 -199 -160 -521 -13 -272
24 -529 94 -669 44 -85 92 -135 167 -172 56 -28 76 -32 147 -33 100 -1 150 13
213 60 70 52 119 116 169 219 50 104 65 167 64 268 -1 124 -5 130 -159 214
-192 105 -210 126 -210 240 0 119 56 202 169 253 61 28 62 33 21 155 -42 125
-42 126 20 110 28 -7 73 -28 101 -46z m613 -409 c159 -221 267 -500 416 -1078
l47 -182 -46 -34 c-166 -120 -344 -233 -423 -270 -107 -50 -304 -117 -428
-145 -163 -37 -487 -75 -465 -53 6 5 66 47 135 92 347 230 476 363 549 565 75
207 95 438 67 780 -8 110 -19 272 -22 360 l-6 160 61 -60 c33 -32 85 -93 115
-135z m-1901 -232 c17 -473 99 -828 255 -1091 56 -96 173 -224 255 -279 72
-49 188 -104 240 -113 49 -9 47 -20 -7 -34 -194 -49 -595 75 -906 279 -98 64
-239 193 -286 261 l-26 38 17 103 c53 328 155 626 277 814 48 74 154 204 167
204 4 0 11 -82 14 -182z"/>
<path d="M10700 7555 c13 -14 26 -25 28 -25 3 0 -5 11 -18 25 -13 14 -26 25
-28 25 -3 0 5 -11 18 -25z"/>
<path d="M6755 5803 c-105 -55 -271 -93 -400 -93 -71 0 -229 21 -340 46 l-80
17 -152 -83 c-84 -45 -153 -84 -153 -86 0 -5 382 -310 542 -433 170 -130 174
-137 165 -275 -4 -66 -12 -93 -45 -160 -74 -147 -209 -283 -349 -349 -58 -27
-82 -32 -164 -35 -199 -8 -374 70 -636 285 l-39 32 -58 -38 -57 -38 108 -87
c79 -64 144 -105 244 -155 170 -85 249 -106 389 -105 129 2 218 27 435 120 82
35 154 64 161 64 6 0 78 -34 160 -74 182 -91 316 -138 393 -138 102 0 270 57
451 154 235 125 342 231 325 322 -9 44 -32 66 -66 59 -41 -8 -131 -85 -214
-182 -67 -78 -84 -92 -138 -114 -110 -43 -164 -52 -322 -52 -159 0 -212 9
-298 52 -203 101 -243 391 -86 619 55 80 136 152 392 348 136 105 247 193 247
197 0 16 -169 134 -235 165 -99 46 -121 48 -180 17z m128 -155 c21 -25 22 -79
1 -121 -46 -89 -188 -211 -322 -275 -64 -31 -80 -34 -130 -30 -95 9 -289 105
-443 219 -66 49 -149 131 -149 147 0 5 123 12 273 15 335 8 526 31 662 80 35
13 43 13 65 0 14 -8 33 -24 43 -35z"/>
<path d="M6618 3363 c7 -3 16 -2 19 1 4 3 -2 6 -13 5 -11 0 -14 -3 -6 -6z"/>
<path d="M6515 3340 c-13 -5 -14 -9 -5 -9 8 0 24 4 35 9 13 5 14 9 5 9 -8 0
-24 -4 -35 -9z"/>
<path d="M6428 3313 c7 -3 16 -2 19 1 4 3 -2 6 -13 5 -11 0 -14 -3 -6 -6z"/>
<path d="M6388 3303 c7 -3 16 -2 19 1 4 3 -2 6 -13 5 -11 0 -14 -3 -6 -6z"/>
<path d="M6285 3280 c-13 -5 -14 -9 -5 -9 8 0 24 4 35 9 13 5 14 9 5 9 -8 0
-24 -4 -35 -9z"/>
<path d="M6237 3263 c-10 -9 -9 -23 1 -23 5 0 9 7 9 15 0 17 -1 18 -10 8z"/>
<path d="M6625 3140 c-9 -16 -13 -30 -11 -30 3 0 12 14 21 30 9 17 13 30 11
30 -3 0 -12 -13 -21 -30z"/>
<path d="M6590 3080 c-6 -11 -8 -20 -6 -20 3 0 10 9 16 20 6 11 8 20 6 20 -3
0 -10 -9 -16 -20z"/>
<path d="M6560 3030 c-6 -11 -8 -20 -6 -20 3 0 10 9 16 20 6 11 8 20 6 20 -3
0 -10 -9 -16 -20z"/>
<path d="M6505 2929 c-9 -17 -15 -33 -13 -35 3 -2 12 12 21 31 21 43 13 47 -8
4z"/>
<path d="M6461 2814 c0 -11 3 -14 6 -6 3 7 2 16 -1 19 -3 4 -6 -2 -5 -13z"/>
<path d="M6451 2774 c0 -11 3 -14 6 -6 3 7 2 16 -1 19 -3 4 -6 -2 -5 -13z"/>
<path d="M6442 2720 c0 -14 2 -19 5 -12 2 6 2 18 0 25 -3 6 -5 1 -5 -13z"/>
<path d="M6432 2670 c0 -14 2 -19 5 -12 2 6 2 18 0 25 -3 6 -5 1 -5 -13z"/>
<path d="M6422 2610 c0 -14 2 -19 5 -12 2 6 2 18 0 25 -3 6 -5 1 -5 -13z"/>
<path d="M6412 2555 c0 -16 2 -22 5 -12 2 9 2 23 0 30 -3 6 -5 -1 -5 -18z"/>
<path d="M6402 2475 c0 -16 2 -22 5 -12 2 9 2 23 0 30 -3 6 -5 -1 -5 -18z"/>
<path d="M6392 2410 c0 -19 2 -27 5 -17 2 9 2 25 0 35 -3 9 -5 1 -5 -18z"/>
<path d="M6383 2310 c0 -25 2 -35 4 -22 2 12 2 32 0 45 -2 12 -4 2 -4 -23z"/>
<path d="M6373 2220 c0 -25 2 -35 4 -22 2 12 2 32 0 45 -2 12 -4 2 -4 -23z"/>
<path d="M6357 2031 c-4 -52 -6 -169 -5 -260 1 -166 1 -166 10 79 8 260 7 336
-5 181z"/>
<path d="M6363 1515 c0 -38 2 -53 4 -32 2 20 2 52 0 70 -2 17 -4 1 -4 -38z"/>
<path d="M6373 1390 c0 -30 2 -43 4 -27 2 15 2 39 0 55 -2 15 -4 2 -4 -28z"/>
<path d="M6382 1300 c0 -19 2 -27 5 -17 2 9 2 25 0 35 -3 9 -5 1 -5 -18z"/>
<path d="M6391 1234 c1 -16 5 -40 9 -54 6 -17 7 -9 3 25 -6 56 -14 74 -12 29z"/>
<path d="M6412 1130 c0 -14 2 -19 5 -12 2 6 2 18 0 25 -3 6 -5 1 -5 -13z"/>
<path d="M6421 1084 c0 -11 3 -14 6 -6 3 7 2 16 -1 19 -3 4 -6 -2 -5 -13z"/>
<path d="M6431 1050 c0 -8 4 -24 9 -35 5 -13 9 -14 9 -5 0 8 -4 24 -9 35 -5
13 -9 14 -9 5z"/>
</g>
</svg>
